<?xml version="1.0" standalone="no"?>
<!DOCTYPE svg PUBLIC "-//W3C//DTD SVG 20010904//EN"
 "http://www.w3.org/TR/2001/REC-SVG-20010904/DTD/svg10.dtd">
<svg version="1.0" xmlns="http://www.w3.org/2000/svg"
 width="120.000000pt" height="40.000000pt" viewBox="0 0 120.000000 40.000000"
 preserveAspectRatio="xMidYMid meet">

<g transform="translate(0.000000,40.000000) scale(0.100000,-0.100000)"
fill="#000000" stroke="none">
<path d="M460 305 c-21 -52 -20 -91 1 -52 13 22 48 22 65 0 7 -10 15 -16 17
-13 8 8 -37 113 -50 117 -5 2 -21 -21 -33 -52z m46 -22 c-2 -3 -11 -3 -19 -1
-11 2 -12 9 -5 28 l10 25 9 -24 c5 -13 7 -26 5 -28z"/>
<path d="M580 301 c0 -34 4 -61 10 -61 6 0 10 12 10 28 l1 27 24 -30 c13 -16
27 -26 31 -22 4 4 0 15 -9 25 -15 17 -15 19 1 35 23 24 5 51 -37 55 l-31 3 0
-60z m53 33 c9 -10 -4 -34 -19 -34 -8 0 -14 9 -14 20 0 19 19 27 33 14z"/>
<path d="M690 350 c0 -5 7 -10 15 -10 11 0 15 -12 15 -50 0 -27 5 -50 10 -50
6 0 10 23 10 50 0 38 4 50 15 50 8 0 15 5 15 10 0 6 -18 10 -40 10 -22 0 -40
-4 -40 -10z"/>
<path d="M810 300 c0 -33 4 -60 10 -60 6 0 10 27 10 60 0 33 -4 60 -10 60 -6
0 -10 -27 -10 -60z"/>
<path d="M880 340 c-40 -40 -12 -100 46 -100 43 0 45 18 3 22 -64 6 -64 70 0
76 17 2 29 8 26 13 -10 16 -54 10 -75 -11z"/>
<path d="M990 300 l0 -60 35 0 c19 0 35 5 35 10 0 6 -11 10 -25 10 -23 0 -25
3 -25 50 0 28 -4 50 -10 50 -6 0 -10 -27 -10 -60z"/>
<path d="M1090 300 l0 -60 35 0 c19 0 35 5 35 10 0 6 -11 10 -25 10 -16 0 -25
6 -25 15 0 8 9 15 20 15 11 0 20 5 20 10 0 6 -9 10 -20 10 -11 0 -20 7 -20 15
0 9 9 15 25 15 14 0 25 5 25 10 0 6 -16 10 -35 10 l-35 0 0 -60z"/>
<path d="M68 333 c-7 -9 -13 -32 -13 -52 0 -30 -4 -37 -22 -39 -19 -3 -23 -10
-23 -38 0 -27 4 -34 19 -34 31 0 46 -26 32 -57 -16 -36 3 -56 45 -47 l30 6 -9
56 c-10 66 -11 79 -2 147 7 48 6 52 -18 62 -21 10 -28 9 -39 -4z"/>
<path d="M639 151 l-22 -18 20 -20 c11 -11 26 -22 34 -25 23 -8 -2 -30 -27
-24 -29 8 -33 -10 -4 -19 23 -7 60 10 60 30 0 7 -14 23 -30 35 -32 23 -31 45
1 37 22 -6 26 8 4 16 -7 3 -24 -2 -36 -12z"/>
<path d="M730 116 c0 -63 43 -99 78 -64 14 14 16 108 2 108 -5 0 -10 -20 -10
-45 0 -33 -5 -47 -16 -52 -21 -8 -34 14 -34 60 0 20 -4 37 -10 37 -5 0 -10
-20 -10 -44z"/>
<path d="M866 144 c-10 -26 -7 -104 4 -104 6 0 10 18 10 41 0 45 15 45 25 -1
9 -40 19 -38 37 7 l15 38 8 -42 c4 -24 12 -43 18 -43 5 0 7 13 3 31 -3 17 -6
44 -6 60 0 41 -24 36 -42 -8 l-15 -38 -17 38 c-17 40 -30 47 -40 21z"/>
</g>
</svg>
